<svg xmlns:dc="http://purl.org/dc/elements/1.1/" xmlns:cc="http://creativecommons.org/ns#" xmlns:rdf="http://www.w3.org/1999/02/22-rdf-syntax-ns#" xmlns:svg="http://www.w3.org/2000/svg" xmlns="http://www.w3.org/2000/svg" xmlns:sodipodi="http://sodipodi.sourceforge.net/DTD/sodipodi-0.dtd" xmlns:inkscape="http://www.inkscape.org/namespaces/inkscape" version="1.1" x="0px" y="0px" width="75.299px" height="104.134px" viewBox="0 0 75.299 104.134" xml:space="preserve" inkscape:version="0.48.2 r9819"><style>.style0{fill:	#010101;}</style><metadata><rdf:RDF><cc:Work rdf:about=""><dc:format>image/svg+xml</dc:format><dc:type rdf:resource="http://purl.org/dc/dcmitype/StillImage"/></cc:Work></rdf:RDF></metadata><defs/><polygon points="1.8,44.2 10.1,38.2 16.1,46.4 7.8,52.5 1.8,44.2"/><polygon points="8.2,21.3 18.1,18.7 20.7,28.5 10.9,31.2 8.2,21.3"/><polygon points="28.7,1 38.6,3.7 35.9,13.6 26,10.9 28.7,1"/><polygon points="14.3,39.4 17.1,37.4 19,40.1 16.3,42.1 14.3,39.4"/><path d="M22.317 34.655c0.967-0.355 1.993-0.721 3.02-1.084c0.366 1 0.7 2 1.1 3 c-1.03 0.362-2.053 0.725-3.021 1.083C23.042 36.6 22.7 35.7 22.3 34.655L22.317 34.655z"/><polygon points="31.1,32 34.4,31.8 34.6,35.1 31.3,35.3 31.1,32"/><polygon points="21.8,21.7 25,21 25.8,24.3 22.4,24.9 21.8,21.7"/><path d="M30.654 20.708c1.023 0 2 0 3 0.064c0 1.02-0.057 2.049-0.057 3.015c-1.026 0-2.055 0-3.081-0.055 C30.593 22.7 30.6 21.7 30.7 20.708L30.654 20.708z"/><path d="M39.406 21.741c0.969 0.2 1.9 0.5 2.8 0.782c-0.294 0.962-0.539 1.927-0.845 2.8 c-0.902-0.24-1.871-0.542-2.834-0.786C38.864 23.6 39.1 22.6 39.4 21.741L39.406 21.741z"/><path d="M47.615 24.636c0.906 0.5 1.8 1.1 2.7 1.568c-0.549 0.904-1.087 1.747-1.568 2.7 c-0.91-0.542-1.754-1.026-2.657-1.568C46.593 26.4 47.1 25.5 47.6 24.636L47.615 24.636z"/><polygon points="54.9,29.3 57.3,31.6 55,34.1 52.6,31.8 54.9,29.3"/><polygon points="40.9,8.3 44,9.6 42.7,12.7 39.6,11.4 40.9,8.3"/><path d="M49.065 12.257c0.906 0.5 1.8 1.1 2.7 1.749c-0.544 0.904-1.147 1.811-1.753 2.7 c-0.902-0.542-1.808-1.145-2.71-1.753C47.922 14.1 48.5 13.2 49.1 12.257L49.065 12.257z"/><path d="M56.313 17.629c0.782 0.8 1.5 1.5 2.3 2.235c-0.729 0.785-1.515 1.567-2.236 2.3 c-0.785-0.725-1.506-1.449-2.296-2.235C54.803 19.2 55.6 18.4 56.3 17.629L56.313 17.629z"/><path d="M59.636 26.205c0.904-0.606 1.81-1.209 2.655-1.815c0.604 0.9 1.2 1.8 1.8 2.7 c-0.903 0.603-1.748 1.205-2.654 1.812C60.841 28 60.2 27 59.6 26.205L59.636 26.205z"/><path d="M63.798 33.45c0.963-0.428 1.995-0.844 3.021-1.267c0.36 1 0.8 2 1.2 3 c-0.969 0.431-1.991 0.851-2.96 1.273C64.647 35.4 64.2 34.4 63.8 33.45L63.798 33.45z"/><polygon points="66.5,41.3 69.7,40.7 70.4,44 67.1,44.6 66.5,41.3"/><path d="M67.06 65.815l-0.117-1.449l-0.181-1.45l-0.244-1.449l-0.36-1.393l-0.364-1.327l-0.484-1.328l-0.481-1.327l-0.604-1.267 l-0.608-1.21l-0.719-1.263l-0.725-1.155l-0.846-1.142l-0.849-1.091l-0.905-1.083l-0.962-0.969l-1.03-0.962l-1.022-0.908l-1.15-0.907 l-1.088-0.786l-1.207-0.782L51.909 41.9l-1.271-0.66l-1.267-0.546l-1.332-0.545l-1.326-0.42l-1.39-0.424l-1.383-0.302l-1.152-0.24 v16.542c-1.084 0-2.173-0.062-3.199 0c-2.294 0-4.524 0.183-6.826 0.729l-0.965 0.301l-0.906 0.298l-0.963 0.362l-0.847 0.4 l-0.908 0.427l-0.843 0.481l-0.79 0.541l-0.838 0.546l-0.729 0.545l-0.786 0.6l-0.662 0.668l-0.664 0.66l-0.667 0.728l-0.599 0.7 l-0.61 0.786l-0.538 0.789l-0.484 0.782l-0.481 0.844l-0.421 0.847l-0.368 0.904l-0.355 0.847l-0.307 0.965l-0.242 0.9 l-0.18 0.915l-0.183 0.958l-0.12 0.965l-0.059 1.03l-0.063 0.965l0.063 1.087l0.059 1.023l0.12 1.025l0.183 1.026l0.242 1 l0.302 0.969l0.301 0.969l0.42 0.907l0.423 0.897l0.427 0.911l0.542 0.844l0.542 0.843l0.604 0.851l0.603 0.778l0.667 0.7 l0.721 0.729l0.727 0.66l0.782 0.664l0.849 0.66l0.845 0.546l0.845 0.538l0.904 0.549l0.908 0.42l0.965 0.431l0.965 0.4 l0.967 0.359l1.028 0.305l1.026 0.176l1.083 0.183l1.028 0.187l1.146 0.064h1.089h0.782h0.244h0.481l0.727-0.064l0.784-0.064 l0.725-0.122l0.723-0.114l0.729-0.122l0.658-0.122l0.729-0.18l0.664-0.176l0.723-0.18l0.664-0.243l0.666-0.244l0.662-0.244 l0.667-0.302l0.604-0.305l0.662-0.298l0.604-0.305l0.665-0.359l0.602-0.362l0.604-0.366l0.604-0.362l0.542-0.416l0.608-0.424 l0.598-0.431l0.549-0.484l0.541-0.408l0.544-0.492l0.546-0.48l0.484-0.553l0.538-0.478l0.484-0.545l0.48-0.538l0.426-0.484 l0.48-0.546l0.427-0.545l0.361-0.535l0.421-0.549l0.422-0.546l0.364-0.599l0.36-0.553l0.364-0.6l0.302-0.603l0.36-0.6l0.304-0.609 l0.301-0.6l0.304-0.609l0.238-0.657l0.307-0.603l0.237-0.675l0.185-0.66l0.237-0.603l0.187-0.66l0.178-0.664l0.183-0.671l0.12-0.66 l0.12-0.725l0.124-0.664l0.114-0.66l0.066-0.732L67 69.439l0.06-0.729v-0.725l0.058-0.664L67.06 65.815z M39.588 87.4 c-6.342 0-11.532-5.128-11.532-11.529c0-6.344 5.19-11.54 11.532-11.54c6.342 0 11.5 5.2 11.5 11.5 C51.122 82.2 45.9 87.4 39.6 87.37z"/><path d="M39.588 66.662c-5.072 0-9.178 4.17-9.178 9.179c0 5.1 4.1 9.2 9.2 9.2 c5.009 0 9.173-4.108 9.173-9.179C48.762 70.8 44.6 66.7 39.6 66.662z M39.588 81.029c-2.84 0-5.192-2.347-5.192-5.188 s2.352-5.135 5.192-5.135c2.84 0 5.1 2.3 5.1 5.135S42.429 81 39.6 81.029z" class="style0"/><path d="M42.122 32c-1.267-0.122-2.654-0.183-3.983-0.183c-0.666 0-1.267 0-1.929 0v16.911 c-14.315 1.205-25.602 12.86-25.602 27.112c0 15 12.6 27.3 28 27.292c1.208 0 2.413-0.061 3.56-0.187 c8.631-0.958 16.12-5.131 21.737-11.228c5.921-6.462 9.845-14.98 9.845-24.396C73.704 49.1 59.9 34.1 42.1 32z M69.6 68 v0.782l-0.064 0.786l-0.059 0.789l-0.121 0.729l-0.061 0.726l-0.124 0.778l-0.18 0.721l-0.123 0.736l-0.178 0.718l-0.24 0.7 l-0.182 0.725l-0.24 0.725l-0.244 0.668l-0.24 0.721l-0.304 0.664l-0.298 0.729l-0.305 0.667l-0.303 0.66l-0.361 0.66l-0.36 0.7 l-0.364 0.606l-0.364 0.656l-0.422 0.61l-0.421 0.603l-0.428 0.596l-0.418 0.613l-0.421 0.604l-0.484 0.599l-0.484 0.5 l-0.481 0.549l-0.484 0.538l-0.545 0.61l-0.544 0.542l-0.542 0.542l-0.601 0.545l-0.608 0.542l-0.604 0.488l-0.6 0.48l-0.604 0.5 l-0.604 0.424l-0.662 0.477l-0.664 0.42l-0.669 0.37l-0.662 0.423l-0.66 0.359l-0.665 0.362l-0.725 0.305l-0.726 0.359l-0.662 0.3 l-0.732 0.24l-0.778 0.298l-0.725 0.244l-0.729 0.176l-0.782 0.244l-0.725 0.187l-0.786 0.111l-0.786 0.187l-0.784 0.1 l-0.545 0.054H41.82l-0.784 0.119l-0.843 0.061h-0.788h-0.843h-1.269l-1.208-0.114l-1.146-0.119l-1.213-0.243l-1.143-0.241 l-1.146-0.309l-1.089-0.354l-1.085-0.424l-1.091-0.488l-1.024-0.484l-0.967-0.599l-0.965-0.606l-0.965-0.66l-0.904-0.664 l-0.845-0.729l-0.851-0.778l-0.782-0.793l-0.784-0.836l-0.666-0.912l-0.664-0.904l-0.662-0.969l-0.547-0.969l-0.542-0.965 l-0.486-1.016l-0.421-1.03l-0.359-1.091l-0.305-1.087l-0.303-1.148l-0.177-1.145l-0.18-1.148l-0.063-1.141l-0.06-1.213l0.06-1.091 l0.063-1.145l0.18-1.087l0.177-1.088l0.244-1.026l0.24-1.091l0.368-1.025l0.358-0.966l0.422-0.969l0.484-0.962l0.542-0.969 l0.549-0.9l0.599-0.908l0.666-0.847l0.664-0.785l0.719-0.844l0.788-0.664l0.784-0.728l0.79-0.722l0.904-0.664l0.845-0.609 l0.963-0.539l0.91-0.545l0.963-0.538l1.028-0.424l1.024-0.423c3.443-1.206 6.586-1.572 10.329-1.572V35.685 c0.603 0.1 1.2 0.1 1.8 0.244c3.382 0.5 6.5 1.6 9.7 3.014c2.777 1.4 5.1 3.1 7.4 5.131l1.083 1 l1.089 1.083l0.966 1.152l0.967 1.209l0.845 1.206l0.846 1.324l0.725 1.273l0.725 1.389l0.6 1.389l0.607 1.442l0.484 1.5 l0.422 1.511l0.36 1.446l0.244 1.511l0.241 1.571l0.123 1.629v1.629V68.046z" class="style0"/></svg>